<svg width="25" height="28" viewBox="0 0 25 28" fill="none" xmlns="http://www.w3.org/2000/svg">
<path d="M2.7027 0H14.8648C15.5816 0 16.2691 0.284748 16.7759 0.791602C17.2828 1.29846 17.5675 1.9859 17.5675 2.7027V5.4054H14.8648V2.7027H2.7027V24.3243H14.8648V21.6216H17.5675V24.3243C17.5675 25.0411 17.2828 25.7285 16.7759 26.2354C16.2691 26.7422 15.5816 27.027 14.8648 27.027H2.7027C1.9859 27.027 1.29846 26.7422 0.791602 26.2354C0.284748 25.7285 0 25.0411 0 24.3243V2.7027C0 1.9859 0.284748 1.29846 0.791602 0.791602C1.29846 0.284748 1.9859 0 2.7027 0Z" fill="white"/>
<path d="M16.3378 18.3649L18.2432 20.2703L24.9999 13.5136L18.2432 6.75684L16.3378 8.66224L19.8243 12.1622H6.75671V14.8649H19.8243L16.3378 18.3649Z" fill="white"/>
</svg>
