<svg width="46" height="45" viewBox="0 0 46 45" fill="none" xmlns="http://www.w3.org/2000/svg">
<g filter="url(#filter0_d_3_1118)">
<ellipse cx="23" cy="18.5" rx="19" ry="18.5" fill="white"/>
<path d="M41 18.5C41 28.14 32.9664 36 23 36C13.0336 36 5 28.14 5 18.5C5 8.85999 13.0336 1 23 1C32.9664 1 41 8.85999 41 18.5Z" stroke="#FF785B" stroke-width="2"/>
</g>
<path d="M23 28C22.1429 28 17.2786 23.2208 15.35 20.2597C15.0714 19.8961 14.8143 19.4286 14.5786 18.9091L14.5143 18.7532C14.4714 18.6234 14.4071 18.4935 14.3643 18.3117C14.3214 18.1818 14.2786 18.026 14.2357 17.8701C14.0857 17.2468 14 16.6753 14 16.1299C14 12.7532 16.2714 10 19.0571 10C20.6 10 22.0571 10.8571 23 12.3117C23.9429 10.8571 25.4 10 26.9429 10C29.7286 10 32 12.7532 32 16.1299C32 16.7273 31.8929 17.2727 31.7643 17.8442C31.7429 18.026 31.6786 18.1818 31.6357 18.3377L31.6143 18.3896C31.5929 18.4416 31.5714 18.4935 31.55 18.5455C31.5286 18.5974 31.5071 18.6753 31.4643 18.7532V18.7792L31.4214 18.9091C31.1857 19.4545 30.9286 19.8961 30.65 20.2857C28.7214 23.2208 23.8571 28 23 28ZM15.5643 18.3896C15.7571 18.8052 15.95 19.1429 16.1429 19.4026L16.1643 19.4545C18.1357 22.4416 22.1429 26.1299 23 26.6494C23.8571 26.1039 27.8643 22.4416 29.8143 19.4286L29.8357 19.3766C30.05 19.1169 30.2429 18.7792 30.4143 18.3636V18.3117L30.5 18.1558C30.5214 18.1039 30.5429 18.0519 30.5643 17.974C30.5857 17.9221 30.6071 17.8442 30.6286 17.7662C30.65 17.6623 30.6929 17.5844 30.6929 17.5065V17.4805C30.8 16.987 30.8857 16.5455 30.8857 16.0779C30.8857 13.4026 29.1071 11.2468 26.9 11.2468C25.4429 11.2468 24.1357 12.1818 23.4286 13.7403L23 14.8312L22.5286 13.8182C21.8214 12.2597 20.5143 11.3247 19.0571 11.3247C16.85 11.2987 15.0714 13.4545 15.0714 16.1299C15.0714 16.5455 15.1357 17.013 15.2643 17.4805L15.2857 17.5584C15.3071 17.6364 15.3286 17.7403 15.3714 17.8442L15.3929 17.8701C15.4143 17.974 15.4571 18.0779 15.5214 18.1818L15.6071 18.3377V18.3896H15.5643Z" fill="#FF785B"/>
<defs>
<filter id="filter0_d_3_1118" x="0" y="0" width="46" height="45" filterUnits="userSpaceOnUse" color-interpolation-filters="sRGB">
<feFlood flood-opacity="0" result="BackgroundImageFix"/>
<feColorMatrix in="SourceAlpha" type="matrix" values="0 0 0 0 0 0 0 0 0 0 0 0 0 0 0 0 0 0 127 0" result="hardAlpha"/>
<feOffset dy="4"/>
<feGaussianBlur stdDeviation="2"/>
<feColorMatrix type="matrix" values="0 0 0 0 0.945098 0 0 0 0 0.945098 0 0 0 0 0.94902 0 0 0 1 0"/>
<feBlend mode="normal" in2="BackgroundImageFix" result="effect1_dropShadow_3_1118"/>
<feBlend mode="normal" in="SourceGraphic" in2="effect1_dropShadow_3_1118" result="shape"/>
</filter>
</defs>
</svg>
