<svg width="27" height="28" viewBox="0 0 27 28" fill="none" xmlns="http://www.w3.org/2000/svg">
<path d="M17.7184 8.79534C17.6563 8.59737 17.4912 8.45316 17.2926 8.42325L14.9985 8.07817L13.972 5.9227C13.8831 5.73611 13.6998 5.61798 13.4992 5.61798H13.4991C13.2983 5.61804 13.115 5.73627 13.0262 5.92298L12.0009 8.07899L9.70696 8.42533C9.50831 8.45529 9.34335 8.59967 9.28139 8.79764C9.21943 8.99561 9.27121 9.21294 9.41497 9.35819L11.0754 11.0357L10.6841 13.4052C10.6502 13.6104 10.7316 13.8177 10.8941 13.94C10.9859 14.0092 11.0947 14.0444 11.2039 14.0444C11.2879 14.0444 11.3722 14.0236 11.4494 13.9815L13.501 12.8623L15.5531 13.9804C15.7307 14.0772 15.9461 14.061 16.1084 13.9386C16.2708 13.8162 16.3521 13.6088 16.3181 13.4037L15.9256 11.0344L17.5852 9.356C17.7288 9.21064 17.7804 8.99331 17.7184 8.79534ZM14.9907 10.4522C14.8665 10.5778 14.8098 10.7589 14.8392 10.9363L15.0977 12.4968L13.746 11.7604C13.5924 11.6766 13.4088 11.6767 13.2552 11.7605L11.9039 12.4977L12.1617 10.937C12.191 10.7596 12.1342 10.5785 12.0099 10.4529L10.9163 9.34802L12.4272 9.11992C12.5989 9.09399 12.7474 8.98205 12.8242 8.82066L13.4995 7.40064L14.1756 8.82034C14.2525 8.98172 14.401 9.09356 14.5727 9.11937L16.0837 9.34665L14.9907 10.4522Z" fill="white"/>
<path d="M25.3515 24.028L20.9926 16.1656C22.3089 14.4616 23.0976 12.3013 23.0976 9.95318C23.0976 4.46499 18.7921 0 13.4999 0C8.20769 0 3.90216 4.46499 3.90216 9.95318C3.90216 12.3013 4.69076 14.4616 6.00712 16.1656L1.64828 24.028C1.54819 24.2086 1.55568 24.4325 1.66764 24.6055C1.77959 24.7784 1.97677 24.8704 2.17563 24.8427L5.5777 24.3689L6.8831 27.6612C6.95956 27.8539 7.13506 27.9849 7.33567 27.9988C7.34748 27.9996 7.35924 28 7.37094 28C7.55842 28 7.73292 27.8965 7.82752 27.7266L12.2279 19.8227C12.2285 19.8215 12.229 19.8202 12.2297 19.819C12.6455 19.8762 13.0693 19.9063 13.5 19.9063C13.9306 19.9063 14.3545 19.8762 14.7703 19.819C14.7709 19.8202 14.7714 19.8214 14.7721 19.8227L19.1724 27.7266C19.267 27.8965 19.4416 28 19.629 28C19.6407 28 19.6525 27.9996 19.6643 27.9988C19.8649 27.9849 20.0404 27.8539 20.1169 27.6612L21.4223 24.3689L24.8244 24.8427C25.0237 24.8704 25.2204 24.7784 25.3324 24.6055C25.444 24.4325 25.4516 24.2086 25.3515 24.028ZM7.45047 26.2162L6.50019 23.8197L7.35296 22.3765C7.50515 22.119 7.42721 21.7823 7.17889 21.6245C6.93056 21.4667 6.60587 21.5475 6.45373 21.805L5.59199 23.2633L3.09606 23.6109L6.74931 17.0212C7.94596 18.2504 9.45186 19.1562 11.1339 19.6001L7.45047 26.2162ZM13.4998 18.8126C8.78919 18.8126 4.9568 14.8383 4.9568 9.95318C4.9568 5.06808 8.78919 1.09376 13.4998 1.09376C18.2105 1.09376 22.0428 5.06808 22.0428 9.95318C22.0428 14.8383 18.2105 18.8126 13.4998 18.8126ZM21.4077 23.2633L20.546 21.805C20.3938 21.5475 20.0691 21.4666 19.8208 21.6245C19.5725 21.7823 19.4945 22.119 19.6467 22.3765L20.4995 23.8197L19.5492 26.2162L15.8658 19.6001C17.5478 19.1562 19.0538 18.2504 20.2504 17.0212L23.9036 23.6109L21.4077 23.2633Z" fill="white"/>
<path d="M13.5 2.84375C12.3231 2.84375 11.1621 3.15831 10.1422 3.75354C9.88842 3.90163 9.79846 4.23512 9.94126 4.49833C10.0841 4.76154 10.4056 4.85495 10.6595 4.70674C11.5217 4.20351 12.504 3.93751 13.5 3.93751C16.6985 3.93751 19.3008 6.63613 19.3008 9.95316C19.3008 10.8596 19.1114 11.7305 18.7379 12.5416C18.6125 12.8142 18.7238 13.1406 18.9866 13.2708C19.06 13.3071 19.1373 13.3243 19.2135 13.3243C19.4103 13.3243 19.5992 13.2094 19.6897 13.0129C20.1314 12.0534 20.3555 11.024 20.3555 9.95316C20.3555 6.03303 17.2801 2.84375 13.5 2.84375Z" fill="white"/>
<path d="M18.407 14.1325C18.1981 13.9222 17.8642 13.9274 17.6614 14.1441L17.6497 14.1566C17.4462 14.3726 17.4502 14.7189 17.6585 14.9299C17.7611 15.0338 17.894 15.0855 18.0269 15.0855C18.1639 15.0855 18.3009 15.0304 18.4042 14.9207L18.4182 14.9058C18.621 14.6891 18.616 14.3429 18.407 14.1325Z" fill="white"/>
<path d="M17.0114 15.4408C16.8709 15.1763 16.5501 15.08 16.2951 15.2258C15.4444 15.7119 14.4778 15.9689 13.4998 15.9689C10.3013 15.9689 7.69903 13.2702 7.69903 9.95319C7.69903 9.08426 7.87364 8.24622 8.21794 7.46238C8.33871 7.18752 8.22169 6.86322 7.95664 6.73798C7.6916 6.6128 7.37888 6.7341 7.25812 7.00896C6.8508 7.93614 6.64429 8.9267 6.64429 9.95319C6.64429 13.8733 9.71967 17.0626 13.4998 17.0626C14.6553 17.0626 15.7979 16.7587 16.804 16.1837C17.0591 16.0379 17.152 15.7054 17.0114 15.4408Z" fill="white"/>
<path d="M9.22856 5.08043C9.01546 4.87453 8.68175 4.88689 8.48326 5.10783L8.47155 5.1209C8.2738 5.3426 8.28672 5.68861 8.5005 5.89369C8.60191 5.99103 8.73032 6.03916 8.85847 6.03916C9.00032 6.03916 9.14176 5.98015 9.2457 5.86367L9.25498 5.85333C9.45347 5.63234 9.44166 5.28627 9.22856 5.08043Z" fill="white"/>
</svg>
