<svg width="20" height="22" viewBox="0 0 20 22" fill="none" xmlns="http://www.w3.org/2000/svg">
<path d="M17.0711 14.2218C15.9819 13.0237 14.6855 12.1368 13.2711 11.5999C14.786 10.4522 15.7812 8.53136 15.7812 6.35938C15.7812 2.85282 13.1878 0 10 0C6.81223 0 4.21875 2.85282 4.21875 6.35938C4.21875 8.53136 5.21402 10.4522 6.72898 11.5999C5.31453 12.1368 4.01813 13.0237 2.92895 14.2218C1.0402 16.2995 0 19.0618 0 22H1.5625C1.5625 16.8823 5.34754 12.7188 10 12.7188C14.6525 12.7188 18.4375 16.8823 18.4375 22H20C20 19.0618 18.9598 16.2995 17.0711 14.2218ZM10 11C7.67379 11 5.78125 8.91825 5.78125 6.35938C5.78125 3.8005 7.67379 1.71875 10 1.71875C12.3262 1.71875 14.2188 3.8005 14.2188 6.35938C14.2188 8.91825 12.3262 11 10 11Z" fill="white"/>
</svg>
