<svg width="17" height="18" viewBox="0 0 17 18" fill="none" xmlns="http://www.w3.org/2000/svg">
<g clip-path="url(#clip0_3_490)">
<path d="M16.8518 17.082L12.7205 12.7078C13.8287 11.3588 14.4997 9.59867 14.4997 7.67494C14.4997 3.44035 11.2467 0 7.25112 0C3.25179 0 0.00256348 3.44435 0.00256348 7.67494C0.00256348 11.9055 3.25556 15.3499 7.25112 15.3499C9.06797 15.3499 10.7303 14.6395 12.0043 13.4661L16.1356 17.8404C16.2336 17.9441 16.3655 18 16.4937 18C16.6219 18 16.7538 17.9481 16.8518 17.8404C17.0478 17.6328 17.0478 17.2896 16.8518 17.082ZM1.01653 7.67494C1.01653 4.03503 3.81343 1.07761 7.24735 1.07761C10.685 1.07761 13.4782 4.03902 13.4782 7.67494C13.4782 11.3109 10.685 14.2763 7.24735 14.2763C3.81343 14.2763 1.01653 11.3149 1.01653 7.67494Z" fill="#5E5959"/>
</g>
<defs>
<clipPath id="clip0_3_490">
<rect width="17" height="18" fill="white"/>
</clipPath>
</defs>
</svg>
