<svg width="23" height="23" viewBox="0 0 23 23" fill="none" xmlns="http://www.w3.org/2000/svg">
<g clip-path="url(#clip0_3_285)">
<path d="M16.0371 0.314453C14.3485 0.314453 12.761 0.906685 11.5 1.99481C10.239 0.906685 8.6515 0.314453 6.96289 0.314453C3.12347 0.314453 0 3.43793 0 7.27734C0 10.7735 1.10532 14.0963 3.19647 16.8862C4.2023 18.2283 5.40572 19.4003 6.77355 20.3698C8.16016 21.3525 9.68347 22.104 11.3012 22.6034L11.5 22.6647L11.6988 22.6034C13.3165 22.104 14.8398 21.3525 16.2264 20.3698C17.5943 19.4003 18.7977 18.2283 19.8035 16.8862C21.8947 14.0963 23 10.7735 23 7.27734C23 3.43793 19.8765 0.314453 16.0371 0.314453V0.314453ZM11.5 21.2528C5.41853 19.2832 1.34766 13.6933 1.34766 7.27734C1.34766 4.18107 3.86662 1.66211 6.96289 1.66211C8.50603 1.66211 9.94476 2.2754 11.0139 3.38914L11.5 3.89557L11.9861 3.38914C13.0552 2.2754 14.494 1.66211 16.0371 1.66211C19.1334 1.66211 21.6523 4.18107 21.6523 7.27734C21.6523 13.6933 17.5815 19.2832 11.5 21.2528Z" fill="white"/>
<path d="M11.5 13.5178C10.3606 13.5178 9.43359 12.5908 9.43359 11.4514H8.08594C8.08594 13.3339 9.61749 14.8655 11.5 14.8655C13.3825 14.8655 14.9141 13.3339 14.9141 11.4514H13.5664C13.5664 12.5908 12.6394 13.5178 11.5 13.5178Z" fill="white"/>
<path d="M8.08594 8.08228H9.43359V10.1038H8.08594V8.08228Z" fill="white"/>
<path d="M13.5664 8.08228H14.9141V10.1038H13.5664V8.08228Z" fill="white"/>
</g>
<defs>
<clipPath id="clip0_3_285">
<rect width="23" height="23" fill="white"/>
</clipPath>
</defs>
</svg>
